<svg width="15" height="13" viewBox="0 0 15 13" fill="none" xmlns="http://www.w3.org/2000/svg">
<g id="Group">
<path id="Vector" fill-rule="evenodd" clip-rule="evenodd" d="M7.95039 9.88292L10.8254 12.7579C10.9602 12.8925 11.1428 12.9681 11.3333 12.9681C11.5238 12.9681 11.7065 12.8925 11.8412 12.7579L14.7162 9.88292C14.7868 9.81711 14.8435 9.73777 14.8828 9.6496C14.922 9.56143 14.9432 9.46626 14.9449 9.36975C14.9466 9.27324 14.9288 9.17738 14.8927 9.08788C14.8565 8.99839 14.8027 8.91709 14.7345 8.84884C14.6662 8.78059 14.5849 8.72678 14.4954 8.69063C14.4059 8.65448 14.3101 8.63673 14.2136 8.63843C14.1171 8.64014 14.0219 8.66126 13.9337 8.70054C13.8455 8.73983 13.7662 8.79647 13.7004 8.86708L12.0521 10.5154V0.75C12.0521 0.559376 11.9763 0.376559 11.8415 0.241767C11.7068 0.106975 11.5239 0.03125 11.3333 0.03125C11.1427 0.03125 10.9599 0.106975 10.8251 0.241767C10.6903 0.376559 10.6146 0.559376 10.6146 0.75V10.5154L8.96622 8.86708C8.90042 8.79647 8.82107 8.73983 8.73291 8.70054C8.64474 8.66126 8.54957 8.64014 8.45306 8.63843C8.35655 8.63673 8.26069 8.65448 8.17119 8.69063C8.0817 8.72678 8.0004 8.78059 7.93215 8.84884C7.8639 8.91709 7.81009 8.99839 7.77394 9.08788C7.73779 9.17738 7.72004 9.27324 7.72174 9.36975C7.72344 9.46626 7.74457 9.56143 7.78385 9.6496C7.82314 9.73777 7.87978 9.81711 7.95039 9.88292ZM4.17456 0.242083C4.03979 0.107485 3.85711 0.0318824 3.66664 0.0318824C3.47617 0.0318824 3.29349 0.107485 3.15872 0.242083L0.283725 3.11708C0.156765 3.25333 0.0876469 3.43355 0.0909323 3.61975C0.0942177 3.80596 0.16965 3.98362 0.301337 4.1153C0.433025 4.24699 0.610686 4.32242 0.796891 4.32571C0.983096 4.329 1.16331 4.25988 1.29956 4.13292L2.94789 2.48458V12.25C2.94789 12.4406 3.02362 12.6234 3.15841 12.7582C3.2932 12.893 3.47602 12.9688 3.66664 12.9688C3.85727 12.9688 4.04008 12.893 4.17487 12.7582C4.30967 12.6234 4.38539 12.4406 4.38539 12.25V2.48458L6.03373 4.13292C6.09953 4.20353 6.17888 4.26017 6.26704 4.29946C6.35521 4.33874 6.45038 4.35986 6.54689 4.36157C6.6434 4.36327 6.73926 4.34552 6.82876 4.30937C6.91825 4.27322 6.99955 4.21941 7.0678 4.15116C7.13605 4.08291 7.18986 4.00161 7.22601 3.91211C7.26216 3.82262 7.27991 3.72676 7.27821 3.63025C7.27651 3.53374 7.25538 3.43857 7.2161 3.3504C7.17682 3.26223 7.12017 3.18288 7.04956 3.11708L4.17456 0.242083Z" fill="url(#paint0_linear_433_938)"/>
</g>
<defs>
<linearGradient id="paint0_linear_433_938" x1="10.9597" y1="0.0312477" x2="-0.992948" y2="1.12498" gradientUnits="userSpaceOnUse">
<stop stop-color="#C38B34"/>
<stop offset="1" stop-color="#ECC47E"/>
</linearGradient>
</defs>
</svg>
