<svg width="13" height="14" viewBox="0 0 13 14" fill="none" xmlns="http://www.w3.org/2000/svg">
<g id="&#208;&#184;&#208;&#186;&#208;&#190;&#208;&#189;&#208;&#186;&#208;&#176;">
<g id="Layer 2">
<path id="Vector" d="M12.3056 1.55556H1.19444C1.01027 1.55556 0.833632 1.62873 0.703398 1.75896C0.573164 1.88919 0.5 2.06583 0.5 2.25001C0.5 2.43418 0.573164 2.61082 0.703398 2.74105C0.833632 2.87129 1.01027 2.94445 1.19444 2.94445H12.3056C12.4897 2.94445 12.6664 2.87129 12.7966 2.74105C12.9268 2.61082 13 2.43418 13 2.25001C13 2.06583 12.9268 1.88919 12.7966 1.75896C12.6664 1.62873 12.4897 1.55556 12.3056 1.55556ZM12.3056 6.00001H1.19444C1.01027 6.00001 0.833632 6.07317 0.703398 6.2034C0.573164 6.33364 0.5 6.51027 0.5 6.69445C0.5 6.87863 0.573164 7.05526 0.703398 7.1855C0.833632 7.31573 1.01027 7.3889 1.19444 7.3889H12.3056C12.4897 7.3889 12.6664 7.31573 12.7966 7.1855C12.9268 7.05526 13 6.87863 13 6.69445C13 6.51027 12.9268 6.33364 12.7966 6.2034C12.6664 6.07317 12.4897 6.00001 12.3056 6.00001ZM12.3056 10.4445H1.19444C1.01027 10.4445 0.833632 10.5176 0.703398 10.6478C0.573164 10.7781 0.5 10.9547 0.5 11.1389C0.5 11.3231 0.573164 11.4997 0.703398 11.6299C0.833632 11.7602 1.01027 11.8333 1.19444 11.8333H12.3056C12.4897 11.8333 12.6664 11.7602 12.7966 11.6299C12.9268 11.4997 13 11.3231 13 11.1389C13 10.9547 12.9268 10.7781 12.7966 10.6478C12.6664 10.5176 12.4897 10.4445 12.3056 10.4445Z" fill="url(#paint0_linear_318_1677)"/>
<path id="Vector_2" d="M9.52767 4.33334C10.6783 4.33334 11.611 3.4006 11.611 2.25001C11.611 1.09941 10.6783 0.166672 9.52767 0.166672C8.37708 0.166672 7.44434 1.09941 7.44434 2.25001C7.44434 3.4006 8.37708 4.33334 9.52767 4.33334Z" fill="url(#paint1_linear_318_1677)"/>
<path id="Vector_3" d="M5.639 8.77778C6.78959 8.77778 7.72233 7.84504 7.72233 6.69445C7.72233 5.54385 6.78959 4.61111 5.639 4.61111C4.4884 4.61111 3.55566 5.54385 3.55566 6.69445C3.55566 7.84504 4.4884 8.77778 5.639 8.77778Z" fill="url(#paint2_linear_318_1677)"/>
<path id="Vector_4" d="M9.52767 13.2222C10.6783 13.2222 11.611 12.2895 11.611 11.1389C11.611 9.9883 10.6783 9.05556 9.52767 9.05556C8.37708 9.05556 7.44434 9.9883 7.44434 11.1389C7.44434 12.2895 8.37708 13.2222 9.52767 13.2222Z" fill="url(#paint3_linear_318_1677)"/>
</g>
</g>
<defs>
<linearGradient id="paint0_linear_318_1677" x1="9.64634" y1="1.55556" x2="-0.401821" y2="2.52953" gradientUnits="userSpaceOnUse">
<stop stop-color="#C38B34"/>
<stop offset="1" stop-color="#ECC47E"/>
</linearGradient>
<linearGradient id="paint1_linear_318_1677" x1="10.4931" y1="0.166671" x2="7.1336" y2="0.434419" gradientUnits="userSpaceOnUse">
<stop stop-color="#C38B34"/>
<stop offset="1" stop-color="#ECC47E"/>
</linearGradient>
<linearGradient id="paint2_linear_318_1677" x1="6.60444" y1="4.61111" x2="3.24493" y2="4.87886" gradientUnits="userSpaceOnUse">
<stop stop-color="#C38B34"/>
<stop offset="1" stop-color="#ECC47E"/>
</linearGradient>
<linearGradient id="paint3_linear_318_1677" x1="10.4931" y1="9.05556" x2="7.1336" y2="9.32331" gradientUnits="userSpaceOnUse">
<stop stop-color="#C38B34"/>
<stop offset="1" stop-color="#ECC47E"/>
</linearGradient>
</defs>
</svg>
